<?xml version="1.0" encoding="UTF-8"?>
<svg viewBox="0 0 458.91544 291.5" xmlns="http://www.w3.org/2000/svg" xmlns:xlink="http://www.w3.org/1999/xlink">
 <defs>
  <linearGradient id="b">
   <stop stop-color="#006e29" offset="0"/>
   <stop stop-color="#bf5e00" offset="1"/>
  </linearGradient>
  <linearGradient id="d">
   <stop stop-color="#eb7331" offset="0"/>
   <stop stop-color="#ffd9b0" offset="1"/>
  </linearGradient>
  <linearGradient id="a">
   <stop stop-color="#e7b380" offset="0"/>
   <stop stop-color="#eecaa6" offset="1"/>
  </linearGradient>
  <linearGradient id="p" x1="600.04" x2="597.04" y1="597.77" y2="675.27" gradientUnits="userSpaceOnUse">
   <stop stop-color="#d3d7cf" offset="0"/>
   <stop stop-color="#888a85" offset="1"/>
  </linearGradient>
  <linearGradient id="l" x1="624.04" x2="574.04" y1="600.77" y2="676.77" gradientUnits="userSpaceOnUse">
   <stop stop-color="#d3d7cf" offset="0"/>
   <stop stop-color="#555753" offset="1"/>
  </linearGradient>
  <linearGradient id="k" x1="319.04" x2="336.04" y1="294.77" y2="421.77" gradientUnits="userSpaceOnUse">
   <stop stop-color="#00c4cc" offset="0"/>
   <stop stop-color="#00c4cc" stop-opacity="0" offset="1"/>
  </linearGradient>
  <linearGradient id="g" x1="416.53" x2="426.36" y1="634.82" y2="594.92" gradientUnits="userSpaceOnUse">
   <stop stop-color="#eabc8f" offset="0"/>
   <stop stop-color="#eecaa6" offset="1"/>
  </linearGradient>
  <linearGradient id="c" x2="0" y1="203.46" y2="184.21" gradientUnits="userSpaceOnUse">
   <stop stop-color="#2c72c7" offset="0"/>
   <stop stop-color="#2c72c7" stop-opacity="0" offset="1"/>
  </linearGradient>
  <linearGradient id="o" x1="260.59" x2="269.62" y1="578.11" y2="627.28" gradientUnits="userSpaceOnUse" xlink:href="#b"/>
  <linearGradient id="n" x1="297.61" x2="304.54" y1="577.05" y2="614.82" gradientUnits="userSpaceOnUse" xlink:href="#b"/>
  <linearGradient id="m" x1="328.6" x2="332.57" y1="582.41" y2="604.01" gradientUnits="userSpaceOnUse" xlink:href="#b"/>
  <linearGradient id="j" x1="511.44" x2="510.24" y1="465.26" y2="492.98" gradientUnits="userSpaceOnUse" xlink:href="#a"/>
  <linearGradient id="i" x1="596.51" x2="627" y1="894.48" y2="876.67" gradientTransform="matrix(-.67582 0 0 .67582 916.71 -39.669)" gradientUnits="userSpaceOnUse" xlink:href="#a"/>
  <linearGradient id="h" x1="596.51" x2="627" y1="894.48" y2="876.67" gradientTransform="matrix(.65237 .17648 -.17648 .65237 280.53 -128.09)" gradientUnits="userSpaceOnUse" xlink:href="#a"/>
  <linearGradient id="f" x2="0" y1="498.1" y2="513.58" gradientUnits="userSpaceOnUse" xlink:href="#d" spreadMethod="reflect"/>
  <linearGradient id="e" x2="0" y1="312.24" y2="317.2" gradientTransform="matrix(0 .07203 1.8422 0 -72.838 610.44)" gradientUnits="userSpaceOnUse" xlink:href="#d" spreadMethod="reflect"/>
 </defs>
 <g transform="translate(-176.12 -383.77)">
  <g transform="matrix(1 0 0 .77559 -200 428.79)">
   <path d="m376.93 203.85c252.78-13.243 455.91 0 455.91 0v28.822h-455.91v-28.822z" fill="#adc732" opacity=".75"/>
   <path d="m483.5 200.96c-39.148 10.097-69.984 13.266-107.38 21.669l0.32719 9.897 18.011 0.14673c20.453-8.5789 83.562-22.523 103.79-32.666 2.228-6.073-8.3226 2.2513-14.741 0.95297z" fill="#fd0" opacity=".39695"/>
   <path d="m753.63 202.85c-12.728 4.0218-48.036 19.684-64.57 24.534 34.031-3.8258 75.989-19.379 71.2-24.534h-6.6298zm-52.721 4.4468c-83.055 9.3373-142.48 21.038-168.36 21.865l121.38 2.5109c19.101-4.92 29.534-19.26 46.973-24.376z" fill="#e3ad00" opacity=".39695"/>
   <path d="m813.02 202.97c-39.148 10.097 3.3673 20.799-34.031 29.202h22.288c20.453-8.5789 5.1326-19.007 25.356-29.151 2.228-6.073-7.1941 1.2469-13.612-0.0514z" fill="#fd0" opacity=".39695"/>
   <path d="m644.85 199.24c-39.148 10.097-55.314 25.319-92.712 33.722l27.93-1.0044c20.453-8.5789 66.071-20.514 86.294-30.657 2.228-6.073-15.093-0.76185-21.512-2.0602z" fill="#fd0" opacity=".39695"/>
   <path d="m565.88 197.95c-39.148 10.097-67.727 24.315-105.13 32.717h38.086c20.453-8.5789 62.121-21.518 82.344-31.662 2.228-6.073-8.8868 0.24253-15.305-1.0558z" fill="#cdd01e" opacity=".6"/>
   <path d="m580.36 200.89c-30.989 10.097 2.6654 20.799-26.938 29.202h17.642c16.19-8.5789 4.0628-19.007 20.071-29.151 1.7636-6.073-5.6946 1.2469-10.775-0.0514z" fill="#555753" opacity=".39695"/>
   <path d="m586.36 200.89c-30.989 10.097 2.6654 20.799-26.938 29.202h17.642c16.19-8.5789 4.0628-19.007 20.071-29.151 1.7636-6.073-5.6946 1.2469-10.775-0.0514z" fill="#555753" opacity=".39695"/>
  </g>
  <g transform="matrix(1 0 0 .77559 -28 382.29)">
   <path d="m205.04 289.82c224-17 404 0 404 0v37h-404v-37z" fill="#adc732"/>
   <path d="m319.97 284.82c-34.691 12.962-78.516 31.213-111.66 42h43.75c18.124-11.013 58.548-26.334 76.469-39.355 1.9743-7.7961-2.875-0.978-8.5625-2.6447z" fill="#fd0" opacity=".39695"/>
   <path d="m506.35 289.82c-11.279 5.163-24.567 11.087-39.219 17.312 30.156-4.9113 49.337-10.695 45.094-17.312h-5.875zm-52.219 14.734c-73.599 11.986-196.26 21.205-219.19 22.266h183.06c16.926-6.3159 20.671-15.699 36.125-22.266z" fill="#e3ad00" opacity=".39695"/>
   <path d="m594.97 286.11c-34.691 12.962-78.516 31.213-111.66 42h43.75c18.124-11.013 58.548-26.334 76.469-39.355 1.9743-7.7961-2.875-0.978-8.5625-2.6447z" fill="#fd0" opacity=".39695"/>
   <path d="m444.97 282.25c-34.691 12.962-78.516 31.213-111.66 42h43.75c18.124-11.013 58.548-26.334 76.469-39.355 1.9743-7.7961-2.875-0.978-8.5625-2.6447z" fill="#fd0" opacity=".39695"/>
   <path d="m375.04 281.71c-33.227 6.58-63.72 33.037-89.719 43.823h34.323c14.219-11.013 47.701-35.451 71.306-42.546l-15.91-1.2771z" fill="#888a85" opacity=".6"/>
   <path d="m379.14 282.17c-30.558 6.58-58.601 33.037-82.512 43.823h31.566c13.077-11.013 43.869-35.451 65.578-42.546l-14.632-1.2771z" fill="#7e855a" opacity=".6"/>
  </g>
  <g transform="matrix(1 0 0 1.1346 -80 324.42)">
   <path d="m257.04 271.77c224-17 404 0 404 0v37h-404v-37z" fill="#37a42c"/>
   <path transform="translate(176.04 383.8)" d="m295.44-117.03c-34.691 12.962-78.516 31.213-111.66 42h73.75c18.124-11.013 41.548-26.979 59.469-40 1.9743-7.7961-15.875-0.33333-21.562-2z" fill="#fd0" opacity=".39695"/>
   <path transform="translate(176.04 383.8)" d="m197.53-112.03c0.20297-3.1938-17.601 3.7355-19.438 4.5158 4.6116-0.75105 31.446-5.0461 35.5-5.8378l-16.062 1.322zm-116.53 14.406v22.594h17.875c111.08-37.645 86.788-31.305-17.875-22.594z" fill="#cdd01e" opacity=".39695"/>
   <path transform="translate(176.04 383.8)" d="m472.31-112.03c-11.279 5.163-24.567 11.087-39.219 17.312 30.156-4.9113 49.337-10.695 45.094-17.312h-5.875zm-39.219 17.312c-73.599 11.986-209.26 18.626-232.19 19.688h183.06c16.926-6.3159 33.671-13.121 49.125-19.688z" fill="#e3ad00" opacity=".39695"/>
  </g>
  <path d="m417.04 675.27 206-75.5 9 1v73l-215 1.5" fill="url(#p)"/>
  <g transform="translate(1,180)">
   <path d="m177.04 203.77h457v239h-457z" fill="url(#k)" opacity=".39695"/>
   <path d="m355.58 220.82c-9.3625 0-17.632 3.8028-22.554 9.6075-3.9396-1.3161-8.4319-2.0551-13.204-2.0551-8.9256 0-16.875 2.6081-22.041 6.679-1.8412-0.55299-3.8058-0.87341-5.857-0.87341-10.112 0-18.316 7.2978-18.316 16.286s8.2036 16.286 18.316 16.286c1.4878 0 2.9308-0.19039 4.3157-0.48808 3.9607 6.3791 14.46 10.943 26.793 10.943 3.7169 0 7.2512-0.42846 10.507-1.1817 3.8339 7.7115 16.407 13.384 31.34 13.384 8.502 0 16.243-1.827 22.041-4.8294 3.6458 0.8727 7.5736 1.3358 11.663 1.3358 19.261 0 34.885-10.529 34.885-23.531s-15.624-23.556-34.885-23.556c-5.674 0-11.012 0.94617-15.747 2.5688-0.96584-11.49-12.799-20.576-27.255-20.576z" fill="#fcffff" opacity=".39695"/>
   <path transform="translate(172.51 203.77)" d="m100.72 153.78c-11.39 0-21.449 4.6261-27.438 11.688-4.7925-1.601-10.257-2.5-16.062-2.5-10.858 0-20.529 3.1727-26.812 8.125-2.2398-0.67271-4.6298-1.0625-7.125-1.0625-8.2342 0-15.424 3.9965-19.281 9.9062v19.781c0.92831 1.4283 2.027 2.7627 3.3125 3.9375l187.34-4.875c-3.8349-13.16-21.01-23.094-41.625-23.094-6.9024 0-13.396 1.151-19.156 3.125-1.1749-13.977-15.57-25.031-33.156-25.031z" fill="#fbfeff" opacity=".39695"/>
   <path transform="translate(172.51 203.77)" d="m143.06 130.12c-16.338 0-30.785 6.6204-39.375 16.75-6.8749-2.2966-14.704-3.5938-23.031-3.5938-15.576 0-29.455 4.5521-38.469 11.656-3.213-0.96501-6.6394-1.5-10.219-1.5-12.018 0-22.51 5.9025-27.969 14.625v27.562c1.3813 2.2111 3.0933 4.2316 5.0625 6.0312l268.75-7c-5.5012-18.878-30.147-33.125-59.719-33.125-9.9015 0-19.206 1.6683-27.469 4.5-1.6855-20.051-22.335-35.906-47.562-35.906z" fill="#fbfeff" opacity=".39695"/>
   <path d="m345.76 265.79c-15.859-23.855-38.971-42.388-46.758-14.634-10.112 0-25.387-9.6727-25.387-0.68406s8.2036 16.286 18.316 16.286c1.4878 0 2.9308-0.19039 4.3157-0.48808 3.9607 6.3791 14.46 10.943 26.793 10.943 3.7169 0 7.2512-0.42846 10.507-1.1817 3.8339 7.7115 16.407 13.384 31.34 13.384 8.502 0 16.243-1.827 22.041-4.8294 3.6458 0.8727 7.5736 1.3358 11.663 1.3358 19.261 0 34.885-10.529 34.885-23.531s-19.866-8.7071-39.128-8.7071c-5.674 0-13.133 8.0172-17.868 9.6399 9.2732-17.061-10.485-14.085-30.718 2.466z" fill="#fcffff" opacity=".7"/>
  </g>
  <path d="m271.07 625.02c-0.19968-4.6443-0.60918-8.2602-0.60918-13.097 0-0.59344 0.57954 0.0296 0.91376-0.30458 0.15698-0.15698 0.11471-2.5119 0-2.7413-0.73309-1.4662-0.34062-6.4324-1.2184-7.3101-0.8469-0.84691-4.2691-1.2232-4.5688-1.523-1.5945-1.5945-1.7814-3.8673-3.0459-6.3964-0.94861-1.8972 0-11.435 0-13.707 0-2.8861-0.38715-5.1211-1.2184-7.6147-0.97663-2.9299 0-7.9065 0-10.965 0-1.4808-0.31406-12.94 0.60917-13.402 0.43031-0.21516 1.3289 2.3532 1.523 2.7413 1.3625 2.725 4.7174 4.5615 5.7872 6.701 0.78546 1.5709 0.72241 3.5769 1.523 5.178 1.3123 2.6246 1.1914 5.7333 2.4367 8.2239 0.41656 0.83312-0.35178 2.9987 0.3046 3.6551 4.6409 4.6409 3.3505 13.571 3.3505 21.017 0 1.1023 2.2309 4.4701 1.2184 5.4826-0.1523 0.1523-0.76148-0.15229-0.91377 0-1.2386 1.2386-2.3244 3.1259-3.3505 5.178-0.13196 0.26393-0.13196 10.092 0 10.356 0.44683 0.89365 2.1321 3.0714 2.1321 4.2643 0 0.77678 0.49433 4.3791 0 4.8734-0.30459 0.30459-1.523-0.30459-1.8275 0l-1.2184 1.2184c-0.45406 0.45406-1.2313-0.37069-1.8275-1.8275z" fill="url(#o)"/>
  <path d="m305.66 613.09c-0.10079-3.4144-0.59062-6.8571-0.39444-10.255 1.7844-0.68619-0.26842-3.8912 0.17125-5.5631 0.47952-2.587-2.149-2.9284-3.9891-3.3707-1.3769-1.696-1.922-3.9541-2.5834-5.9838-0.46427-5.0942 1.1631-10.367-0.69284-15.312-0.87156-3.4387 0.29339-6.9769-0.0266-10.463 0.0463-2.6943-0.19582-5.4468 0.3725-8.0961 1.2815 0.89143 1.9573 3.9852 3.9268 4.9924 1.7024 1.1903 2.3301 3.1589 2.6243 5.1078 1.0631 2.1918 1.2632 4.6472 2.0619 6.9251 0.42039 1.6542-0.0918 3.4387 1.536 4.6552 2.2721 4.3538 1.4094 9.4134 1.4426 14.125-0.36316 1.5064 2.1786 3.8753 0.58231 4.7518-1.4933 0.68782-2.3864 2.8353-2.9585 4.37-0.0485 2.5204-0.0919 5.0466 0.0332 7.5647 1.2202 1.6153 1.9178 3.4896 1.7958 5.5326 0.66681 2.2458-1.5572 0.83623-2.2653 2.1913-0.6898 0.9905-1.4089-0.65121-1.6367-1.1715z" fill="url(#n)" opacity=".9"/>
  <path d="m333.21 603.01c-0.0574-1.9549-0.33727-3.9049-0.22551-5.8631 1.0385-0.97768-0.30966-2.6254 0.0794-3.8858-0.56894-1.393-2.7657-0.68714-2.9756-2.4242-0.69251-1.4712-0.97203-3.0757-0.77447-4.6935 0.13508-2.1554 0.35313-4.3958-0.42837-6.463-0.40762-2.0652 0.22888-4.1527 0.0317-6.2316 1e-3 -1.399-0.0857-2.8162 0.20933-4.1946 0.96088 1.0566 1.4069 2.5509 2.7304 3.2809 0.96747 1.1059 0.96226 2.6577 1.5345 3.9534 0.30043 1.3674 0.79357 2.6884 0.87128 4.0947 0.66876 1.2446 1.4911 2.4832 1.4928 4.0045 0.21173 1.8827-0.0918 3.7878 0.0298 5.664 0.46834 0.92262 1.0342 2.1379-0.27738 2.6219-0.99929 1.076-1.2751 2.5376-1.1398 3.958-0.27815 1.6123 0.34382 2.9132 0.96224 4.3248 0.21301 1.0172 0.48022 2.3529-0.99728 2.2998-0.47155 0.84808-0.90336 0.10359-1.1231-0.44615z" fill="url(#m)" opacity=".9"/>
  <path d="m275.21266,623.2978c-2.46259-.13899-4.3799-.42404-6.94478-.42404-.31467,0 .0157.40341-.1615.63605-.0833.10928-1.33192.0798-1.45356,0-.77745-.51029-3.41076-.2371-3.87616-.84807-.44906-.58952-.64859-2.97167-.80753-3.18031-.84549-1.10993-2.05061-1.23999-3.39164-2.12021-1.00598-.66032-6.0631,0-7.26778,0-1.53032,0-2.71545-.26949-4.03767-.84808-1.55356-.67982-4.19234,0-5.81424,0-.78518,0-6.86151-.21862-7.10628.42403-.11408.29953 1.24774.92502 1.45356,1.06011 1.44493.94843 2.41869,3.28375 3.55314,4.02839 .83298.54675 1.89665.50286 2.74561,1.06011 1.39169.91348 3.04005.82932 4.36068,1.69616 .44175.28996 1.59004-.24487 1.93807.21203 2.46083,3.23049 7.19572,2.33223 11.14395,2.33223 .58447,0 2.37023,1.55289 2.90712.84808 .0807-.10601-.0807-.53006 0-.63606 .65678-.8622 1.65746-1.61799 2.74561-2.33224 .13994-.0919 5.35127-.0919 5.49122,0 .47385.31104 1.62861,1.48415 2.2611,1.48415 .41187,0 2.32198.3441 2.5841,0 .1615-.21202-.16151-1.0601 0-1.27213l.64602-.84807c.24076-.31607-.19656-.85712-.96904-1.27213z" fill="#555753" opacity=".2"/>
  <path d="m307.90553,611.36527c-2.06781-.12686-3.67776-.38701-5.83146-.38701-.26423,0 .0132.36818-.13561.58051-.07.0997-1.1184.0728-1.22054,0-.65282-.46574-2.86398-.2164-3.25477-.77402-.37707-.53804-.54462-2.71218-.67808-2.90261-.70995-1.01301-1.72187-1.13171-2.84792-1.93507-.84471-.60266-5.09112,0-6.10268,0-1.28499,0-2.28013-.24596-3.39039-.77402-1.30451-.62046-3.52026,0-4.88215,0-.65931,0-5.76154-.19953-5.96707.387-.0958.27338 1.04771.84425 1.22054.96754 1.21329.86561 2.03095,2.99701 2.98353,3.67663 .69945.49901 1.5926.45895 2.30546.96754 1.16859.83372 2.5527.75691 3.66162,1.54805 .37093.26464 1.33514-.22349 1.62738.19352 2.06633,2.9484 6.04217,2.12858 9.35745,2.12858 .49078,0 1.99026,1.41729 2.44108.77402 .0678-.0967-.0678-.48377 0-.58052 .55149-.78691 1.39175-1.4767 2.30546-2.12858 .11751-.0839 4.4934-.0839 4.61092,0 .39789.28388 1.36753,1.35455 1.89862,1.35455 .34584,0 1.94974.31405 2.16984,0 .13561-.19351-.13562-.96753 0-1.16105l.54246-.77401c.20216-.28848-.16505-.78228-.81369-1.16105z" fill="#555753" opacity=".2"/>
  <path d="m334.26064,602.90886c-1.6107-.0581-2.86475-.17719-4.54235-.17719-.20582,0 .0103.16857-.10563.26578-.0545.0457-.87117.0333-.95073,0-.50851-.21323-2.23086-.0991-2.53527-.35438-.29371-.24634-.42422-1.24175-.52818-1.32894-.55301-.4638-1.34123-.51814-2.21835-.88596-.65798-.27592-3.96568,0-4.75362,0-1.00093,0-1.77608-.11261-2.6409-.35438-1.01614-.28407-2.74207,0-3.8029,0-.51356,0-4.48789-.0914-4.64798.17719-.0746.12516.8161.38653.95072.44298 .94508.39631 1.58199,1.37216 2.32399,1.68332 .54483.22847 1.24054.21013 1.79581.44298 .91026.38171 1.9884.34655 2.85218.70877 .28893.12116 1.03999-.10233 1.26763.0886 1.60954,1.3499 4.70648.97455 7.28888.97455 .38229,0 1.55029.6489 1.90145.35438 .0528-.0443-.0528-.22149 0-.26578 .42958-.36029 1.08409-.6761 1.79581-.97456 .0915-.0384 3.50009-.0384 3.59163,0 .30993.12997 1.06522.62017 1.47891.62017 .26939,0 1.51873.14379 1.69017,0 .10563-.0886-.10564-.44298 0-.53158l.42254-.35437c.15747-.13208-.12856-.35816-.63381-.53158z" fill="#555753" opacity=".2"/>
  <path d="m440.04 674.77 22.573-11.95 22.873-7.9977 13.599-10.949 131.45-43.103h3.5l-2 71-192 3" fill="url(#l)"/>
  <g transform="matrix(.76626 0 0 .76626 156.01 152.09)">
   <path d="m465.39 637.45c-15.841 18.796-15.991 35.271-11.766 43.372l115.12 0.25303s-6.4597-46.498-21.225-40.544-83.053-3.081-82.13-3.081z" fill="#00438a"/>
   <path d="m466.24 495.06c6.6705-0.36923 22.508-6.1779 32.672-5.3538 15.61 1.2656 16.961 0.60745 34.813 3.203 12.215 1.776 13.914-11.764 19.107-10.429 4.7108 1.2113 7.9645 15.091 9.8689 20.487 0.26337 24.053-34.408 180.26-53.924 94.441l-35.184-53.937" fill="#eecaa6"/>
   <path d="m511.75 365.5c3.2062-0.0827 11.99 1.2952 16.431 4.3506 46.826 34.147 29.313 58.96 31.552 113.24l-13.812-8.4055s-25.455-7.7279-10.241 18.778l-19.337-3.5088 6.3898-2.9778c0.6362-0.65179-5.9699-0.0675-5.5093-0.87025 3.6587-6.377-15.508 0.30783-11.134-2.2552-0.0563-0.0316-0.11189-0.0758-0.16896-0.10559-5.6626-2.9668-14.048 1.4406-19.05 10.158-2.2145 3.8599-3.3986 7.9373-3.5903 11.616-5.724 0.97056-11.417 2.1955-13.812 3.5481-5.5827 3.1527-20.338 3.9282-20.338 3.9282s-16.82-29.843-3.0412-43.168c-6.6694-5.5319-12.833 13.88-13.854 9.5248 0.72408-20.907 28.111-33.901 32.545-64.921 4.0518-28.349 20.355-47.671 49.377-47.265-4.2484-1.0402-4.3314-1.6188-2.4076-1.6684z" fill="#eb7331"/>
   <path d="m511.47 376.15 0.14784 0.0211-0.14784-0.0211zm5.2376 1.0137c-6.1695 1.3416-12.874 0.38858-18.871 3.005-14.849 5.0608-16.51 32.774-18.996 47.47-1.534 14.922-15.012 16.343-24.234 28.013 8.9204-2.182 17.899-4.3087 15.588-2.3511-6.2736 5.3152-16.221 20.061-12.769 17.875 12.676-8.0272 11.972-5.683 12.221 4.7646 17.04-14.95 5.6146 26.497-20.629 16.73-6.0087-2.2362 8.6426 10.056 3.9723 15.919 13.001-10.61 23.773-7.4992 29.989-13.087 8.632-7.7609 11.613-21.316 27.564-13.71 5.5888 4.6405-1.0025 10.326 0.41303 15.734-0.16991 4.5654-2.347 1.2478 3.5983-0.0931 6.2024 0.17946 9.7948-4.8613 15.997-4.6818-4.0307-10.761-0.41126-11.569 9.0962-19.399 3.2474-3.829 8.6259-2.8589 12.118-0.0531-0.0438-3.4959-0.99189-6.9082-3.1853-11.506-4.5284-9.4922 7.9332-1.6986 8.029-3.3928 0.736-13.022-2.4725-26.721-4.2434-39.686-2.0375-16.319-14.188-28.704-26.818-38.01-2.3977-2.3324-5.7427-2.7643-8.8408-3.541v-5e-5zm-88.744 100.13c-0.98003 0.26622-0.49903 1.3147 0 0z" fill="#d8571d"/>
   <path d="m513.66 396.95c-21.38 0.17846-31.028 22.033-34.023 39.873-2.6537 17.95 15.676 27.525 25.132 39.683 7.2537 8.0994 17.28 13.247 22.65 0.14078 0.37098-0.90547 0.014 4.2538 3.8808 7.4825-1.5319-8.3986-6.0084-15.454 7.8363-9.7458-0.38823-2.0515-14.59-10.426-8.2208-9.2187 4.5558 0.90131 8.8202 1.4732 13.98 3.4998-4.9678-4.3005-4.1152-11.805-3.04-14.672 0 0 2.6017 0.43377 6.1458 1.3728-0.0214-1.4234-0.0827-2.8508-0.2112-4.2872 1.221-20.018-5.1347-43.546-25.048-52.355-2.8738-1.1706-5.9716-1.8231-9.0813-1.774v1e-4z" fill="#964927"/>
   <path d="m495.19 463.35h30.106s-0.47788 17.204 2.8673 39.664l-37.274 0.47787c10.513-13.858 4.3009-40.142 4.3009-40.142z" fill="url(#j)"/>
   <g transform="matrix(.67325 .05894 -.05894 .67325 147.97 -75.998)">
    <path d="m559.18 695.47c1.6699 12.732-0.36054 20.312-5.152 20.94-2.026 0.26575-5.3819 6.9148-7.2641 4.0159-2.5691-3.957-0.97146-14.082-1.9353-21.43-1.67-12.732-7.1395-25.062-2.348-25.69s15.029 9.433 16.699 22.165z" fill="#e8b686"/>
    <path d="m642.13 694.97c-1.6699 12.732 0.36054 20.312 5.152 20.94 2.026 0.26575 5.3819 6.9148 7.2641 4.0159 2.5691-3.957 0.97146-14.082 1.9353-21.43 1.67-12.732 7.1395-25.062 2.348-25.69s-15.029 9.433-16.699 22.165z" fill="#e8b686"/>
    <path d="m600.4 619.31c-25.236 2.1029-45.66 23.31-51.604 47.258-2.2427 9.2532-1.7064 18.869-1.6632 28.294 2.0938 22.924 14.178 45.175 33.066 58.46 6.2702 4.1144 13.422 7.715 20.932 8.3106 20.908-4.1914 36.795-21.377 45.42-40.172 5.2738-11.385 7.9914-24.026 7.1551-36.575 1.4961-26.467-15.072-53.363-40.055-62.612-4.2649-1.557-8.7311-2.5573-13.252-2.9653z" fill="#eecaa6"/>
    <path d="m584.75 666.86 5.75 5.25-1.25 14-8-12s6.25-4.75 3.5-7.25z" fill="#e8b888"/>
    <g transform="translate(-13.25,-4.25)">
     <path d="m589.5 676.87c-7.2245-2.1867-14.752 0.45031-19.139 6.0591 0.70971 6.9124 5.4464 13.043 12.513 15.182 7.2345 2.1898 14.763-0.46429 19.148-6.089-1e-3 -0.01 0.0103-0.0201 9e-3 -0.0299-0.73409-6.8844-5.488-12.991-12.531-15.123z" fill="#fffef9" opacity=".85338"/>
     <path d="m584.06 676.09c-5.3705 0.082-10.429 2.6372-13.719 6.8438 0.57664 5.6164 3.8291 10.7 8.8125 13.562 6.2386-0.0681 11.281-5.1515 11.281-11.406 0-3.6074-1.6975-6.7857-4.3125-8.875-0.68411-0.0692-1.3854-0.13534-2.0625-0.125z" fill="#729fcf" opacity=".85338"/>
     <path transform="matrix(.66667 0 0 .66667 200.58 249.49)" d="m576.29 653.55c0 4.1005-3.3241 7.4246-7.4246 7.4246s-7.4246-3.3241-7.4246-7.4246 3.3241-7.4246 7.4246-7.4246 7.4246 3.3241 7.4246 7.4246z" fill="#204a87"/>
     <path transform="matrix(.28571 0 0 .28571 420.12 495.64)" d="m576.29 653.55c0 4.1005-3.3241 7.4246-7.4246 7.4246s-7.4246-3.3241-7.4246-7.4246 3.3241-7.4246 7.4246-7.4246 7.4246 3.3241 7.4246 7.4246z" fill="#fdf6ed"/>
     <path transform="matrix(.16667 0 0 .16667 482.36 581.04)" d="m576.29 653.55c0 4.1005-3.3241 7.4246-7.4246 7.4246s-7.4246-3.3241-7.4246-7.4246 3.3241-7.4246 7.4246-7.4246 7.4246 3.3241 7.4246 7.4246z" fill="#fdf6ed"/>
     <path d="m590.62 682.36-5.125 2.125 6 0.375-0.875-2.5z" fill="#fdf6ed"/>
     <path d="m584.0625,676.34375c-5.37051.082-10.42863,2.63715-13.71875,6.84375 .0294.28685.0505.5599.0937.84375 4.28809-3.74715 10.49291-5.98563 17.0625-6.0625h.1875c-.47219-.54767-.99641-1.0477-1.5625-1.5-.68411-.0692-1.38545-.13534-2.0625-.125z" fill="#729fcf" opacity=".85338"/>
     <path d="m583.09 675.26c-3.673 0.0561-7.2075 1.2489-10.156 3.3125-1.9051-0.23435-3.8734-0.8191-4.5625-2.375 0.50021 1.3102 1.4528 2.4004 2.6875 3.0625-2.5997-0.31236-5.3091-1.1257-6.25-3.25 0.78704 2.0616 2.4263 3.7161 4.5 4.5312-3.1744-0.46392-6.3222-1.5363-7.4688-4.125 1.376 3.6044 4.7066 6.2728 8.7812 6.5938 0.0127-0.18223 0.0565-0.35936 0.0937-0.53125 4.4657-4.9613 11.533-7.2177 18.344-5.1562 6.6032 1.9987 11.191 7.4925 12.344 13.844-0.88227-6.8921-5.7003-12.982-12.781-15.125-1.8489-0.55963-3.6987-0.80925-5.5312-0.78125z" fill="#2e3436"/>
    </g>
    <path d="m633 671.86s5.25-7 3.5-9.25 11.75-2.5 11.75-2.5 0.75 17.25-3.75 18.5-11.25-6.25-11.5-6.75z" fill="#e8b888"/>
    <path d="m624.86 672.39c7.2245-2.1867 14.752 0.45031 19.139 6.0591-0.70971 6.9124-5.4464 13.043-12.513 15.182-7.2345 2.1898-14.763-0.46429-19.148-6.089 1e-3 -0.01-0.0103-0.0201-9e-3 -0.0299 0.73409-6.8844 5.488-12.991 12.531-15.123z" fill="#fffef9" opacity=".85338"/>
    <path d="m626.33 694.49c-5.3705-0.082-10.429-2.6372-13.719-6.8438 0.57664-5.6164 3.8291-10.7 8.8125-13.562 6.2386 0.0681 11.281 5.1515 11.281 11.406 0 3.6074-1.6975 6.7857-4.3125 8.875-0.68411 0.0692-1.3854 0.13534-2.0625 0.125z" fill="#729fcf" opacity=".85338"/>
    <path transform="matrix(-.66667 0 0 .66667 999.46 248.37)" d="m576.29 653.55c0 4.1005-3.3241 7.4246-7.4246 7.4246s-7.4246-3.3241-7.4246-7.4246 3.3241-7.4246 7.4246-7.4246 7.4246 3.3241 7.4246 7.4246z" fill="#204a87"/>
    <path transform="matrix(-.28571 0 0 .28571 785.4 493.81)" d="m576.29 653.55c0 4.1005-3.3241 7.4246-7.4246 7.4246s-7.4246-3.3241-7.4246-7.4246 3.3241-7.4246 7.4246-7.4246 7.4246 3.3241 7.4246 7.4246z" fill="#fdf6ed"/>
    <path transform="matrix(-.16667 0 0 .16667 713.61 578.33)" d="m576.29 653.55c0 4.1005-3.3241 7.4246-7.4246 7.4246s-7.4246-3.3241-7.4246-7.4246 3.3241-7.4246 7.4246-7.4246 7.4246 3.3241 7.4246 7.4246z" fill="#fdf6ed"/>
    <path d="m631.52 678.23-5.125 2.125 6 0.375-0.875-2.5z" fill="#fdf6ed"/>
    <path d="m557.98 660.96c-0.7888-0.15227-2.5059 0.74923-0.74839 0.57186 9.5353 0.66197 27.381 1.7901 31.633 11.305 0.8546 0.80633 2.6678 0.51795 1.75-0.92368-4.4348-10.198-23.07-10.757-32.635-10.953z" fill="#2e3436" opacity=".85338"/>
    <path d="m631.27 670.77c3.673 0.0561 7.2075 1.2489 10.156 3.3125 1.9051-0.23435 3.8734-0.8191 4.5625-2.375-0.50021 1.3102-1.4528 2.4004-2.6875 3.0625 2.5997-0.31236 5.3091-1.1257 6.25-3.25-0.78704 2.0616-2.4263 3.7161-4.5 4.5312 3.1744-0.46392 6.3222-1.5363 7.4688-4.125-1.376 3.6044-4.7066 6.2728-8.7812 6.5938-0.0127-0.18223-0.0565-0.35936-0.0937-0.53125-4.4657-4.9613-11.533-7.2177-18.344-5.1562-6.6032 1.9987-11.191 7.4925-12.344 13.844 0.88227-6.8921 5.7003-12.982 12.781-15.125 1.8489-0.55963 3.6987-0.80925 5.5312-0.78125z" fill="#2e3436"/>
    <path d="m646.73 660.02c0.7888-0.15227 2.5059 0.74923 0.74839 0.57186-9.5353 0.66197-27.381 1.7901-31.633 11.305-0.8546 0.80633-2.6678 0.51795-1.75-0.92368 4.4348-10.198 23.07-10.757 32.635-10.953z" fill="#2e3436" opacity=".85338"/>
    <path d="m589.75 714.06 5.1562 3.25c3.3024 0.5568 6.1579 0.59609 9.0938 0.21875l6.25-3.4688c-7.2717 1.9445-12.138 2.2981-20.5 0z" fill="#2e3436" opacity=".33459"/>
    <path d="m585.26 730.61 12.152 0.60095c1.431 2.6912 3.7458 0.96303 4.2929 0.38388l10.326-0.0455-8.1036 3.5607-8.3436 0.26517-10.323-4.7652z" fill="#ef6f66"/>
    <path d="m586.82 731.77 8.5 3.375 5.75-0.25 9.9357-3.0732c-9.1721 11.824-16.366 12.653-24.186-0.0518z" fill="#f28881"/>
    <path d="m582.5 728.11s13.75 15.75 34 0.75" fill="none" stroke="#a40000" stroke-width="1.9311"/>
    <path d="m594.75,737.36218h7.25a.5,.5 0 0,1 .5.5 .5,.5 0 0,1 -.5.5h-7.25a.5,.5 0 0,1 -.5-.5 .5,.5 0 0,1 .5-.5" fill="#fff" opacity=".33459"/>
    <path d="m590.12 732.74 5.625-0.125 2 2.25-7.625-1.125v-1z" fill="#a40000" opacity=".33459"/>
   </g>
   <path d="m506.15 540.77s13.854 14.868 3.717 19.937-16.896 4.0549-16.896 4.0549l13.179-23.992z" fill="url(#i)"/>
   <path d="m525.27 539.42s-17.256 10.734-8.7942 18.274 15.25 8.3262 15.25 8.3262l-6.4562-26.601z" fill="url(#h)"/>
   <path d="m541.75 491.47-3.0179 3.2218 8.8091 39.396-34.869 20.555-34.421-12.439 0.48939-45.881s-6.0368 0.55522-7.9119 0.61174c1.484 2.3083-7.8711 40.946-7.8711 40.946 1.4516 17.345 8.4512 43.379 9.5432 65.212l2.8956 1.7129-2.7732 2.5693c0.0165 1.347-8.1e-4 2.6939-0.0408 3.9967l2.814 1.5905-3.0587 2.3246c-0.73129 8.843-3.0953 16.329-8.1158 21.289-15.021 15.232 72.443 21.173 94.453 7.4632-4.0941-6.8086-11.34-9.7789-8.4828-22.838 1.8068-8.2578 3.1594-16.326 4.2006-24.062l-2.3246-0.81566 2.5285-0.89722c0.0893-0.68885 0.16011-1.3562 0.2447-2.0391l-1.7944-0.97878 2.1207-1.6313c3.0276-25.909 2.8631-47.111 5.3018-56.239l-16.15-36.256-2.5693-6.8107zm-70.921 5.4649c-0.0544-0.0847-0.11941-0.13931-0.20391-0.12234-0.57601 0.11523-0.39171 0.14037 0.20391 0.12234zm67.903-2.243-0.2447-1.0604v1.305l0.2447-0.2447z" fill="#6193cf"/>
   <path d="m465.56 533.6-31.714 58.983s-10.985 24.098-2.1442 33.895c0 0-17.339 9.2284-14.949 8.2727 0 0 0.75699-29.03-4.0253-49.305 10.137-9.4615 34.195-76.218 34.195-76.218s-3.0668-9.6552 25.074-11.213" fill="url(#g)"/>
   <path d="m548.02 362.08c-4.5652-9.6047-15.058-20.701-12.877-13.781 7.4515 10.053 2.246 7.391 2.246 7.391l-10.5-6.1421-11.5-7.7982c-3.1166 0.40779-1.5678 3.0473-1.5678 3.0473l14.76 11.274-21.746-9.8065c-2.1835 0.82641-0.63419 3.3272-0.63419 3.3272l22.364 11.195-18.361-5.7359c-1.8724 0.96594 0.92332 3.3314 0.92332 3.3314l17.421 7.3978-14.165-2.8119c-1.4038 0.55109 0.61615 2.0822 0.61615 2.0822l13.07 4.3347 11.25 5.6439 7.1862 1.7921 7.2538-5.8017-5.7384-8.9404z" fill="#eecaa6"/>
   <path d="m520.15 374.51c-16.597-1.5809-31.459 7.4096-38.78 22.156-5.039 14.483 6.1943-4.1707 16.676-0.44868-1.2586 2.983 0.5579 4.1849-6.5936 6.3337 7.931 3.4951 14.419-1.662 21.58-6.4722 0.0219 0.9826-0.85523 3.1173 2.202 5.4018 7.8367-25.56 14.065-0.76853 12.421 3.7065 6.7026-8.0888 7.7597 1.002 9.5093 6.6013 6.1322-4.1044 1.6509-9.7692 6.7368-6.0687 0.96809 1.1376 3.6706-0.0946 2.6216-2.1654-2.8419-8.9769-6.8923-18.187-14.049-24.473-3.6321-2.5401-7.9356-4.0477-12.323-4.571z" fill="#eb7331"/>
   <path d="m521.28 386.5c-4.4803 0.0322-4.9923 11.734-7.2705 9.694 0.0157 0.97869-0.48562 3.0821 1.2685 4.3928 3.699-12.065 7.8592-12.739 9.9959-9.1816-0.9212-2.7163-2.3058-4.9398-3.9939-4.9052z" fill="#db5b20"/>
   <path d="m494.33 393.46c-4.5872-5e-3 -10.404 6.7913-12.714 7.9202 6.6205-3.3519 8.391-6.3769 16.429-5.7292l-0.15611-2.3402c-0.85186-0.24626-2.7075 0.15011-3.5586 0.14915z" fill="#f29b68"/>
   <path d="m493.69 402.66c7.2291 1.2636 12.54-2.556 18.335-6.4523-5.9969 0.33079-8.8445 5.792-18.335 6.4523z" fill="#f29b68"/>
   <path d="m543.33 395.45c0.94531 2.2674 1.7645 4.5865 2.4921 6.8849 0.96296 1.901-1.5189 3.0295-2.4076 1.9852-4.6401-3.3762-0.60658 1.7293-6.0824 5.491 0.0881 0.30437 0.16315 0.61919 0.25343 0.90813 5.6295-3.7679 1.519-8.9727 6.188-5.5755 0.88872 1.0443 3.3706-0.0631 2.4076-1.9641-0.81813-2.5842-1.7547-5.194-2.8511-7.7297z" fill="#f29b68"/>
   <path d="m531.92557,400.44637c-.94645.0153-2.1232.72786-3.63254,2.42873-.0244.60092-.0798,1.12066-.21119,1.47836 3.07655-3.71284 4.84875-3.49026 6.06127-1.68955-.14233-.4376-.28326-.85149-.44351-1.24604-.006-.008-.0151-.0137-.0211-.0211-.48234-.59796-1.0598-.96161-1.75292-.95037z" fill="#f29b68"/>
   <path d="m511.15 382.99c-3.9892 6.395-7.9694 8.4851-14.594 14.192 1.472-1.1386 4.166-2.8398 6.9272-4.7519l0.1056-0.0845c3.1203-2.563 5.5996-4.9184 8.1098-9.0391-0.19414-0.0991-0.37261-0.20038-0.5491-0.31679z" fill="#f29b68"/>
   <path d="m479.9 398.38c3.9892-6.395 7.9694-8.4851 14.594-14.192-1.472 1.1386-4.166 2.8398-6.9272 4.7519l-0.1056 0.0845c-3.1203 2.563-5.5996 4.9184-8.1098 9.0391 0.19414 0.0991 0.37262 0.20038 0.5491 0.31679z" fill="#f29b68"/>
   <path d="m509.07 375.9c-6.395 3.9892-8.4851 7.9694-14.192 14.594 1.1386-1.472 2.8398-4.166 4.7519-6.9272l0.0845-0.1056c2.563-3.1203 4.9184-5.5996 9.0391-8.1098 0.0991 0.19414 0.20039 0.37262 0.31679 0.54911z" fill="#f29b68" opacity=".4"/>
   <path d="m531.79 383.73c4.7068 5.8869 5.3562 10.335 8.539 18.479-0.58497-1.7666-1.2948-4.8728-2.1811-8.1122l-0.0446-0.12767c-1.381-3.7944-2.7792-6.9154-5.8321-10.652-0.15798 0.15019-0.31277 0.28489-0.4812 0.4127z" fill="#f29b68"/>
   <path d="m540.15 389.59c3.7849 4.1744 4.3071 7.3288 6.8664 13.104-0.47039-1.2527-1.0412-3.4553-1.7539-5.7524l-0.0359-0.0905c-1.1105-2.6906-2.2348-4.9037-4.6897-7.5532-0.12704 0.10649-0.2515 0.20201-0.38694 0.29264z" fill="#f29b68"/>
   <path d="m517.83 374.26c5.1251 2.3418 6.8499 5.034 11.481 9.3299-0.9266-0.96537-2.3203-2.7639-3.8818-4.5933l-0.0687-0.069c-2.0822-2.034-3.9887-3.6237-7.29-5.0892-0.0747 0.14799-0.15137 0.28488-0.24005 0.42161z" fill="#f29b68"/>
   <path d="m520.54 595.86c-8.8086-0.29463-26.104 4.264-36.452 7.2751 5.1218-0.89306 11.619-1.6873 17.049-2.3103 7.5772-1.9865 16.082-3.9173 22.562-4.537-0.85752-0.25486-1.9151-0.38623-3.1588-0.42782zm-36.533 7.2694c-4.7605 0.83319-8.2599 1.7509-8.3171 2.5599 0 0 3.392-1.1258 8.3171-2.5599z" fill="#407eca"/>
   <path d="m495.35 605.81c-2.2925 2.3286-11.576 4.9855-16.209 5.6132-15.089 2.2462 11.689-7.4354 16.209-5.6132z" fill="#407eca"/>
   <path d="m512.59 559.9c-1.7613 11.948-11.153 21.085-22.512 21.085-8.9262 0-16.635-5.6555-20.391-13.866l-0.48939 0.16313s4.2414 25.122 2.9364 27.732 70.473-14.356 70.473-16.966c0-0.1243-0.14985-0.37407-0.36705-0.6933-2.6806 1.4502-5.6289 2.3246-8.7683 2.3246-10.148 0-18.592-8.4584-20.677-19.739l-0.20392-0.0408z" fill="#2e3436" opacity=".15"/>
   <path transform="matrix(1.305 0 0 1.305 23.522 315.45)" d="m375 184.21c0 10.631-7.835 19.25-17.5 19.25s-17.5-8.6185-17.5-19.25 7.835-19.25 17.5-19.25 17.5 8.6185 17.5 19.25z" fill="url(#c)"/>
   <path transform="matrix(1.2118 0 0 1.305 100.24 314.15)" d="m375 184.21c0 10.631-7.835 19.25-17.5 19.25s-17.5-8.6185-17.5-19.25 7.835-19.25 17.5-19.25 17.5 8.6185 17.5 19.25z" fill="url(#c)"/>
   <path d="m551.75 591.71s-15.918 1.3842-16.611 3.3452 14.188-1.3842 14.188-1.3842l2.4224-1.961z" fill="#407eca"/>
   <path d="m551.63 596.5s-8.1033 0.6921-7.735 1.3842 7.1825-0.57677 7.1825-0.57677l0.5525-0.80744z" fill="#407eca"/>
   <path transform="matrix(0,1,1,0,0,0)" d="m643.39 498.1h38.423v20.929h-38.423z" fill="url(#f)"/>
   <path d="m437.55 615.45c-0.32079 0.0204-0.66362 0.0793-0.97879 0.12234-3.7821 0.51632-7.1369 2.6488-9.8694 5.3018-3.6433 3.5372-6.5776 8.1506-9.013 12.765-4.8708 9.2289-11.399 8.1838-11.399 8.1838l7.504 6.8979s6.4005-3.0627 10.828-11.452c2.2138-4.1946 4.8872-8.1865 7.5448-10.767 2.6448-2.5678 4.8312-3.5002 6.9738-3.1403 6.5014 1.1307 18.399 6.0624 29.853 10.807s22.167 9.4616 30.22 9.4616h24.143c8.0535 0 18.766-4.7165 30.22-9.4616s23.352-9.6768 29.853-10.807c2.1525-0.37435 4.3162 0.56008 6.9738 3.1403s5.331 6.572 7.5448 10.767c4.4277 8.3893 7.137 17.292 7.137 17.292l7.504-2.2838s-2.8372-9.4089-7.708-18.638c-2.4354-4.6144-5.3697-9.2278-9.013-12.765-2.7325-2.6529-6.0873-4.7854-9.8694-5.3018-1.2607-0.17211-2.5773-0.19188-3.9151 0.0408-8.5067 1.4794-20.14 6.6211-31.525 11.338s-22.858 8.8499-27.202 8.8499h-24.143c-4.3444 0-15.817-4.1333-27.202-8.8499s-23.018-9.8582-31.525-11.338c-1.0034-0.17451-1.974-0.22429-2.9364-0.16313v-1e-5z" fill="#babdb6"/>
   <path d="m429.27 616.77-4.4387 0.23737-2.2039 3.1634-5.2577 2.4852-2.1981 4.4862-3.0167 2.6538-2.7148 3.9694s2.009 9.5382 10.964 13.565l2.8998-3.5783s1.2964 1.9717 3.677 2.2227l2.801-5.0277s2.5967 0.25144 3.9326-0.34273c1.7941-2.6383 0.16014-5.218 0.16014-5.218l1.2077-1.5626c0.60953-0.75221 2.8846-1.6075 3.7817-3.4006l-4.7356-6.7575-4.8583-6.8956z" fill="#eecaa6"/>
   <path d="m416.05 634.86s5.2549 8.9354 7.225 8.8434-0.91911 1.9694-0.91911 1.9694-7.4143-9.1815-6.3059-10.813z" fill="#2e3436" opacity=".1"/>
   <path d="m422.3 630.59s5.2549 8.9354 7.225 8.8434-0.46212 2.7858-0.46212 2.7858-7.8712-9.9978-6.7629-11.629z" fill="#2e3436" opacity=".1"/>
   <path d="m426.71 623.86s5.2549 8.9354 7.225 8.8434-0.46213 2.7858-0.46213 2.7858-7.8712-9.9978-6.7628-11.629z" fill="#2e3436" opacity=".1"/>
   <path d="m554.14 519.31c4.7108-1.2113 4.3756-0.0829 6.28-5.4786 3.8924-11.028 25.21-55.049 38.626-82.921 6.3489-13.191-45.869-60.657-45.869-60.657l-8.7869 4.9415c10.475 6.4203 37.877 53.93 37.877 53.93-21.626 28.384-33.982 60.513-33.982 60.513" fill="#eecaa6"/>
   <path d="m537.83 373.42 8.3053 0.4614 2.9991-1.3842-2.0763 3.4605-9.2281-2.5377z" fill="#2e3436" opacity=".1"/>
   <path d="m554.44 502.85-1.8456 11.074 3.2298 5.0754-1.3842-16.149z" fill="#dbba9b"/>
   <path d="m437.41 619.62c-1.89-0.0275-2.5797-0.20767-4.8939 2.0392l0.81565 1.0604c2.6448-2.5678 2.7105-1.5426 4.8532-1.1827 6.5014 1.1307 18.399 6.0624 29.853 10.807s22.167 9.4616 30.22 9.4616h24.143c8.0535 0 18.766-4.7165 30.22-9.4616s23.352-9.6768 29.853-10.807c2.1525-0.37436 4.3162 0.56008 6.9738 3.1403s5.331 6.572 7.5448 10.767v-1.876c-2.2138-4.1946-4.8872-8.1865-7.5448-10.767s-4.8214-3.5146-6.9738-3.1403c-6.5014 1.1307-18.399 6.0624-29.853 10.807s-22.167 9.4616-30.22 9.4616h-24.143c-8.0535 0-18.766-4.7165-30.22-9.4616s-23.352-9.6768-29.853-10.807c-0.26783-0.045-0.50487-0.0369-0.77487-0.0408z" fill="#fff"/>
   <path d="m593.34 631.02s9.3159-3.0437 7.4809-4.2032 16.656 22.9 12.986 25.219-9.7393 3.3336-9.7393 3.3336-7.0575-24.93-10.727-24.35z" fill="#2e3436" stroke="#000" stroke-width="1.305"/>
   <path d="m502.38 633.23v10.365h12.375v-10.365c-7.8129-2.6101-12.375 0-12.375 0z" fill="url(#e)"/>
   <path d="m469.55 658.44s19.61 8.0746 21.686 13.842 6.229 9.2281 6.229 9.2281l-5.5368-12.689s-22.84-11.304-22.378-10.382z" fill="#1d0a55"/>
   <path d="m552.59 660.97s-23.174 7.4301-25.628 12.737-7.3612 8.4916-7.3612 8.4916l6.5433-11.676s26.991-10.402 26.446-9.553z" fill="#1d0a55"/>
   <path d="m410.15 645.36c-0.9336-0.91155-1.9431-1.764-2.7311-2.8107-0.41554-0.39861-0.029-0.87258 0.46858-0.80064 1.589-0.0665 3.0084-0.91555 4.4227-1.5761 0.8975 1.1377 1.756 2.3133 2.8067 3.3188 0.85431 0.88028 1.8446 1.6073 2.792 2.3811-1.2741 0.87851-2.5021 1.8305-3.8507 2.5945-0.45214 0.26889-0.77901-0.38661-1.1399-0.59085-0.94235-0.81673-1.8591-1.6626-2.7682-2.5161z" fill="#2e3436"/>
   <path d="m422.94 586.36s9.2281 1.8456 8.3053 5.5368 6.4597-9.6895 6.4597-9.6895-11.074 5.9982-14.765 4.1526z" fill="#2e3436" opacity=".1"/>
  </g>
  <path transform="translate(176.04 383.8)" d="m405.28 228.17v-2.75l7.625 0.0317c5.645 0.0235 7.3004 0.16264 6.375 0.53596-3.2031 1.2922-13.238 4.9323-13.597 4.9323-0.22164 0-0.40299-1.2375-0.40299-2.75z" fill="#adc732"/>
 </g>
</svg>
